<svg width="442.9113037109375px" height="139.99998168945314px" xmlns="http://www.w3.org/2000/svg" viewBox="28.544348144531256 5.000009155273432 442.9113037109375 139.99998168945314" style="background: none;" preserveAspectRatio="xMidYMid"><defs><filter id="editing-vintage" x="-100%" y="-100%" width="300%" height="300%"><feConvolveMatrix in="SourceGraphic" result="extrude" order="9,9" divisor="1" kernelMatrix="1,0,0,0,0,0,0,0,0,0,1,0,0,0,0,0,0,0,0,0,1,0,0,0,0,0,0,0,0,0,1,0,0,0,0,0,0,0,0,0,1,0,0,0,0,0,0,0,0,0,1,0,0,0,0,0,0,0,0,0,1,0,0,0,0,0,0,0,0,0,1,0,0,0,0,0,0,0,0,0,1"> </feConvolveMatrix><feFlood flood-color="none" result="flood-extrude"></feFlood><feComposite operator="in" in="flood-extrude" in2="extrude" result="extrude-color"></feComposite><feOffset dx="5" dy="5" in="extrude-color" result="extrude-offset"></feOffset><feColorMatrix in="SourceGraphic" result="stroke" type="matrix" values="0 0 0 0 0 0 0 0 0 0 0 0 0 0 0 0 1 0 0 0 "></feColorMatrix><feColorMatrix in="SourceGraphic" result="fill" type="matrix" values="0 0 0 0 0 0 0 0 0 0 0 0 0 0 0 1 0 0 1 0 "></feColorMatrix><feConvolveMatrix in="stroke" result="inner-shadow" order="5,5" divisor="1" kernelMatrix="1 0 0 0 0 0 1 0 0 0 0 0 1 0 0 0 0 0 1 0 0 0 0 0 1 "></feConvolveMatrix><feOffset dx="1" dy="1" in="inner-shadow" result="offset"></feOffset><feComposite operator="in" in="offset" in2="SourceAlpha" result="comp"></feComposite><feFlood flood-color="none" result="flood3"></feFlood><feComposite operator="in" in="flood3" in2="comp" result="comp2"></feComposite><feColorMatrix in="comp2" result="comp3" type="matrix" values="1 0 0 0 0 0 1 0 0 0 0 0 1 0 0 0 0 0 0.5 0 "></feColorMatrix><feFlood flood-color="#ffffff" result="flood1"></feFlood><feComposite operator="in" in="flood1" in2="fill" result="fill2"></feComposite><feFlood flood-color="#fff" result="flood2"></feFlood><feComposite operator="in" in="flood2" in2="stroke" result="stroke2"></feComposite><feMerge result="obj"><feMergeNode in="extrude-offset"></feMergeNode><feMergeNode in="fill2"></feMergeNode><feMergeNode in="comp3"></feMergeNode></feMerge><feConvolveMatrix in="SourceAlpha" result="shadow" order="9,9" divisor="1" kernelMatrix="1,0,0,0,0,0,0,0,0,0,1,0,0,0,0,0,0,0,0,0,1,0,0,0,0,0,0,0,0,0,1,0,0,0,0,0,0,0,0,0,1,0,0,0,0,0,0,0,0,0,1,0,0,0,0,0,0,0,0,0,1,0,0,0,0,0,0,0,0,0,1,0,0,0,0,0,0,0,0,0,1"></feConvolveMatrix><feOffset dx="15" dy="15" in="shadow" result="shadow-offset"></feOffset><feFlood flood-color="none" result="flood-shadow"></feFlood><feComposite operator="in" in="flood-shadow" in2="shadow-offset" result="shadow-color"></feComposite><feMerge><feMergeNode in="shadow-color"></feMergeNode><feMergeNode in="obj"></feMergeNode></feMerge></filter></defs><g transform="translate(-9,-9)"><g filter="url(#editing-vintage)"><g transform="translate(97.17139399051666, 109.54000282287598)"><path d="M1.21-24.07L1.21-24.07L1.07-25.21L1.07-25.21Q1.35-28.19 4.51-31.10L4.51-31.10L4.51-31.10Q7.67-34.01 12.50-36.64L12.50-36.64L12.50-36.64Q17.32-39.26 27.83-41.04L27.83-41.04L27.83-41.04Q33.80-41.96 37.81-41.96L37.81-41.96L37.81-41.96Q41.82-41.96 44.87-41.29L44.87-41.29L44.87-41.29Q47.93-40.61 49.91-38.62L49.91-38.62L49.91-38.62Q51.90-36.64 51.90-33.90L51.90-33.90L51.90-33.90Q51.90-31.17 49.59-28.76L49.59-28.76L49.59-28.76Q47.29-26.34 43.81-25.06L43.81-25.06L43.81-25.06Q37.06-22.58 30.89-22.29L30.89-22.29L30.89-22.29Q33.94-20.45 35.93-19.06L35.93-19.06L35.93-19.06Q37.91-17.68 40.19-15.41L40.19-15.41L40.19-15.41Q42.46-13.14 43.10-11.50L43.10-11.50L43.10-11.50Q43.74-9.87 43.74-8.59L43.74-8.59L43.74-8.59Q43.74-4.40 40.54-0.57L40.54-0.57L40.54-0.57Q38.41 2.06 34.61 3.62L34.61 3.62L34.61 3.62Q30.81 5.18 26.55 5.18L26.55 5.18L26.55 5.18Q17.47 5.18 16.61-1.21L16.61-1.21L16.61-1.21Q16.47-1.35 16.47-1.63L16.47-1.63L16.47-1.63Q13.77 2.70 12.00 2.70L12.00 2.70L12.00 2.70Q11.50 2.70 10.40 2.45L10.40 2.45L10.40 2.45Q9.30 2.20 9.27 1.92L9.27 1.92L9.27 1.92Q9.23 1.63 9.23 0.71L9.23 0.71L9.23 0.71Q9.23-0.21 10.58-3.73L10.58-3.73L10.58-3.73Q11.93-7.24 13.63-10.65L13.63-10.65L13.63-10.65Q16.97-17.04 20.24-23.00L20.24-23.00L20.24-23.00Q20.80-24.28 20.80-24.92L20.80-24.92L20.80-24.92Q20.80-25.56 20.73-25.92L20.73-25.92L20.73-25.92Q21.02-27.90 24.18-31.13L24.18-31.13L24.18-31.13Q27.34-34.36 29.89-34.36L29.89-34.36L29.89-34.36Q30.74-34.36 32.16-33.73L32.16-33.73L32.16-33.73Q33.58-33.09 33.87-31.95L33.87-31.95L33.87-31.95Q33.94-31.45 33.90-31.35L33.90-31.35L33.90-31.35Q33.87-31.24 33.51-31.38L33.51-31.38L33.51-31.38Q33.16-31.52 33.09-31.52L33.09-31.52L33.09-31.52Q30.81-31.52 27.65-28.15L27.65-28.15L27.65-28.15Q24.50-24.78 21.58-19.88L21.58-19.88L21.58-19.88Q15.55-9.94 12.92-3.55L12.92-3.55L12.92-3.55Q12.35-2.13 12.35-1.35L12.35-1.35L12.35-1.35Q12.35-0.28 13.28-0.28L13.28-0.28L13.28-0.28Q14.20-0.28 15.76-2.24L15.76-2.24L15.76-2.24Q17.32-4.19 17.96-4.15L17.96-4.15L17.96-4.15Q18.60-4.12 18.99-3.76L18.99-3.76L18.99-3.76Q19.38-3.41 19.53-3.02L19.53-3.02L19.53-3.02Q19.67-2.63 19.74-1.92L19.74-1.92L19.74-1.92Q19.81-1.21 19.88-0.99L19.88-0.99L19.88-0.99Q21.02 4.05 27.05 4.05L27.05 4.05L27.05 4.05Q27.19 4.05 27.34 4.05L27.34 4.05L27.34 4.05Q32.23 4.05 35.71 1.78L35.71 1.78L35.71 1.78Q39.55-0.78 39.55-4.58L39.55-4.58L39.55-4.58Q39.55-8.38 36.00-12.57L36.00-12.57L36.00-12.57Q34.86-13.85 32.66-15.76L32.66-15.76L32.66-15.76Q27.97-19.81 27.83-20.95L27.83-20.95L27.83-20.95Q27.69-22.08 28.79-22.83L28.79-22.83L28.79-22.83Q29.89-23.57 30.81-23.57L30.81-23.57L30.81-23.57Q34.29-23.57 40.33-26.06L40.33-26.06L40.33-26.06Q49.20-29.68 49.84-34.08L49.84-34.08L49.84-34.08Q49.84-34.36 49.84-34.51L49.84-34.51L49.84-34.51Q49.84-35.78 48.71-36.92L48.71-36.92L48.71-36.92Q46.79-38.98 40.61-38.98L40.61-38.98L40.61-38.98Q32.16-38.98 20.95-35.93L20.95-35.93L20.95-35.93Q14.13-34.08 8.95-30.67L8.95-30.67L8.95-30.67Q3.27-26.91 3.27-22.65L3.27-22.65L3.27-22.65Q3.27-21.73 3.83-20.84L3.83-20.84L3.83-20.84Q4.40-19.95 5.15-19.56L5.15-19.56L5.15-19.56Q5.89-19.17 7.10-18.71L7.10-18.71L7.10-18.71Q8.31-18.25 8.84-18.00L8.84-18.00L8.84-18.00Q9.37-17.75 9.19-17.40L9.19-17.40L9.19-17.40Q9.02-17.04 8.17-17.18L8.17-17.18L8.17-17.18Q5.82-17.32 3.48-19.13L3.48-19.13L3.48-19.13Q1.14-20.95 1.14-23.36L1.14-23.36L1.14-23.36Q1.14-23.71 1.21-24.07ZM73.91-36.21L73.91-36.21L73.91-36.21Q74.76-37.77 74.76-38.62L74.76-38.62L74.76-38.62Q74.76-40.12 73.56-40.12L73.56-40.12L73.56-40.12Q72.56-40.12 71.07-38.98L71.07-38.98L71.07-38.98Q65.39-34.58 60.07-25.06L60.07-25.06L60.07-25.06Q55.81-17.40 53.82-11.93L53.82-11.93L53.82-11.93Q58.72-15.27 64.79-22.79L64.79-22.79L64.79-22.79Q70.86-30.32 73.91-36.21ZM52.75-9.09L52.75-9.09L52.75-9.09Q51.90-6.67 51.83-5.86L51.83-5.86L51.83-5.86Q51.76-5.04 51.76-3.66L51.76-3.66L51.76-3.66Q51.76-2.27 52.47-1.14L52.47-1.14L52.47-1.14Q53.68 0.78 56.52-0.85L56.52-0.85L56.52-0.85Q58.65-1.99 61.91-5.01L61.91-5.01L61.91-5.01Q65.18-8.02 66.95-10.51L66.95-10.51L66.95-10.51Q67.09-10.72 67.38-10.72L67.38-10.72L67.38-10.72Q68.02-10.72 67.73-9.80L67.73-9.80L67.73-9.80Q66.67-7.88 63.79-4.90L63.79-4.90L63.79-4.90Q60.92-1.92 58.58-0.18L58.58-0.18L58.58-0.18Q56.23 1.56 53.89 1.56L53.89 1.56L53.89 1.56Q48.49 1.56 48.49-3.69L48.49-3.69L48.49-3.69Q48.49-3.91 48.49-4.12L48.49-4.12L48.49-4.12Q48.78-9.09 53.53-19.13L53.53-19.13L53.53-19.13Q58.29-29.18 62.13-34.29L62.13-34.29L64.33-37.06L64.33-37.06Q65.11-37.99 66.60-39.33L66.60-39.33L66.60-39.33Q69.44-42.03 72.46-42.03L72.46-42.03L72.46-42.03Q75.47-42.03 76.54-40.19L76.54-40.19L76.54-40.19Q76.89-39.55 76.89-38.34L76.89-38.34L76.89-38.34Q76.89-37.13 75.83-34.93L75.83-34.93L75.83-34.93Q68.52-22.22 52.75-9.09ZM69.51 0.78L69.51 0.78L69.51 0.78Q68.37 0.78 67.06 0.11L67.06 0.11L67.06 0.11Q65.75-0.57 64.82-1.81L64.82-1.81L64.82-1.81Q63.90-3.05 63.90-4.47L63.90-4.47L63.90-4.47Q63.90-5.89 64.54-7.17L64.54-7.17L64.54-7.17Q65.96-10.15 69.12-12.96L69.12-12.96L69.12-12.96Q72.28-15.76 75.69-17.75L75.69-17.75L75.69-17.75Q79.09-19.74 81.08-20.24L81.08-20.24L81.08-20.24Q83.07-20.73 84.95-20.73L84.95-20.73L84.95-20.73Q86.83-20.73 88.18-19.77L88.18-19.77L88.18-19.77Q89.53-18.82 89.53-17.75L89.53-17.75L89.53-17.75Q89.53-17.40 89.46-17.32L89.46-17.32L89.46-17.32Q89.39-17.25 89.11-17.40L89.11-17.40L89.11-17.40Q88.25-18.74 85.59-18.74L85.59-18.74L85.59-18.74Q82.93-18.74 79.56-17.00L79.56-17.00L79.56-17.00Q76.18-15.27 73.20-12.64L73.20-12.64L73.20-12.64Q70.72-10.30 68.83-7.35L68.83-7.35L68.83-7.35Q66.95-4.40 66.95-3.05L66.95-3.05L66.95-3.05Q66.95-0.43 68.44-0.43L68.44-0.43L68.44-0.43Q69.94-0.43 72.99-2.84L72.99-2.84L72.99-2.84Q78.03-7.10 79.88-9.09L79.88-9.09L79.88-9.09Q86.41-16.12 86.90-16.12L86.90-16.12L86.90-16.12Q87.76-16.12 88.96-15.62L88.96-15.62L88.96-15.62Q90.17-15.12 89.74-14.41L89.74-14.41L89.74-14.41Q86.12-9.30 85.48-4.12L85.48-4.12L85.48-4.12Q85.41-3.48 85.41-2.49L85.41-2.49L85.41-2.49Q85.41-1.49 85.98-0.85L85.98-0.85L85.98-0.85Q87.05 0.28 88.89-0.71L88.89-0.71L88.89-0.71Q90.74-1.70 94.04-4.69L94.04-4.69L94.04-4.69Q97.34-7.67 99.33-10.51L99.33-10.51L99.33-10.51Q99.61-10.86 99.97-10.69L99.97-10.69L99.97-10.69Q100.32-10.51 100.32-10.37L100.32-10.37L100.32-10.37Q100.32-9.30 96.95-5.72L96.95-5.72L96.95-5.72Q93.58-2.13 91.80-0.85L91.80-0.85L91.80-0.85Q88.47 1.63 85.63 1.63L85.63 1.63L85.63 1.63Q82.93 1.63 82.01-1.07L82.01-1.07L82.01-1.07Q81.79-1.92 81.79-2.98L81.79-2.98L81.79-2.98Q81.79-6.18 83.14-9.73L83.14-9.73L83.14-9.73Q82.86-9.59 80.51-6.89L80.51-6.89L80.51-6.89Q78.17-4.19 75.08-1.70L75.08-1.70L75.08-1.70Q71.99 0.78 69.51 0.78ZM116.23-15.62L116.23-15.62L116.58-17.04L116.58-17.04Q116.58-18.46 115.52-18.46L115.52-18.46L115.52-18.46Q112.61-18.46 107.56-13.92L107.56-13.92L107.56-13.92Q102.52-9.37 101.17-4.76L101.17-4.76L101.17-4.76Q100.82-3.55 100.82-2.59L100.82-2.59L100.82-2.59Q100.82-1.63 101.25-0.99L101.25-0.99L101.25-0.99Q102.10 0.28 103.87 0.28L103.87 0.28L103.87 0.28Q105.65 0.28 107.71-0.21L107.71-0.21L107.71-0.21Q112.25-1.49 115.27-3.87L115.27-3.87L115.27-3.87Q118.29-6.25 121.62-10.51L121.62-10.51L121.62-10.51Q121.91-10.86 122.30-10.72L122.30-10.72L122.30-10.72Q122.69-10.58 122.69-10.33L122.69-10.33L122.69-10.33Q122.69-10.08 122.48-9.59L122.48-9.59L122.48-9.59Q119.07-4.97 115.34-2.09L115.34-2.09L115.34-2.09Q111.61 0.78 106.71 1.63L106.71 1.63L106.71 1.63Q105.29 1.85 104.09 1.85L104.09 1.85L104.09 1.85Q100.61 1.85 98.80 0.14L98.80 0.14L98.80 0.14Q96.99-1.56 96.99-3.62L96.99-3.62L96.99-3.62Q96.99-5.68 97.98-8.09L97.98-8.09L97.98-8.09Q99.75-12.14 105.58-16.40L105.58-16.40L105.58-16.40Q111.40-20.66 114.81-20.66L114.81-20.66L114.81-20.66Q115.66-20.66 116.44-20.45L116.44-20.45L116.44-20.45Q118.43-19.74 118.43-18.18L118.43-18.18L118.43-18.18Q118.43-17.11 117.65-15.76L117.65-15.76L117.65-15.76Q116.87-14.41 116.48-14.80L116.48-14.80L116.48-14.80Q116.09-15.19 116.23-15.62ZM124.04 0.57L124.04 0.57L124.04 0.57Q121.48 1.85 120.77 1.85L120.77 1.85L120.77 1.85Q120.06 1.85 120.06 1.63L120.06 1.63L120.06 1.63Q120.06 1.42 120.17 1.17L120.17 1.17L120.17 1.17Q120.27 0.92 121.16-1.49L121.16-1.49L121.16-1.49Q122.05-3.91 123.40-7.60L123.40-7.60L123.40-7.60Q124.75-11.29 125.74-13.77L125.74-13.77L125.74-13.77Q124.11-12.00 121.91-8.88L121.91-8.88L121.91-8.88Q121.55-8.38 120.95-8.59L120.95-8.59L120.95-8.59Q120.35-8.80 121.34-10.08L121.34-10.08L121.34-10.08Q123.68-12.92 127.23-18.25L127.23-18.25L127.23-18.25Q126.17-18.82 126.17-19.35L126.17-19.35L126.17-19.35Q126.17-19.88 126.31-20.16L126.31-20.16L126.31-20.16Q126.66-21.02 127.59-20.52L127.59-20.52L127.59-20.52Q128.01-20.38 128.16-20.38L128.16-20.38L128.16-20.38Q131.28-28.61 135.97-35.07L135.97-35.07L135.97-35.07Q138.52-38.70 141.29-40.36L141.29-40.36L141.29-40.36Q144.06-42.03 146.47-42.03L146.47-42.03L146.47-42.03Q148.18-42.03 149.74-41.22L149.74-41.22L149.74-41.22Q151.30-40.40 151.30-38.55L151.30-38.55L151.30-38.55Q151.30-35.00 145.20-28.26L145.20-28.26L145.20-28.26Q141.93-24.78 137.88-21.87L137.88-21.87L137.88-21.87Q133.84-18.96 130.71-17.61L130.71-17.61L130.71-17.61Q127.94-11.50 125.81-4.83L125.81-4.83L130.43-10.86L130.43-10.86Q130.36-11.50 130.36-12.21L130.36-12.21L130.36-12.21Q130.36-14.34 131.28-14.84L131.28-14.84L131.28-14.84Q131.78-15.05 131.92-13.99L131.92-13.99L132.20-12.99L132.20-12.99Q137.67-19.38 140.08-20.52L140.08-20.52L140.08-20.52Q141.22-21.09 142.14-21.09L142.14-21.09L142.14-21.09Q143.07-21.09 143.78-20.59L143.78-20.59L143.78-20.59Q144.49-20.09 144.49-19.53L144.49-19.53L144.49-19.53Q144.49-18.53 142.85-17.75L142.85-17.75L142.85-17.75Q135.04-13.99 132.56-11.36L132.56-11.36L132.56-11.36Q134.26-5.40 135.89-1.99L135.89-1.99L135.89-1.99Q137.53 1.42 141.04 5.68L141.04 5.68L141.04 5.68Q144.56 9.94 147.47 9.94L147.47 9.94L147.47 9.94Q149.88 9.94 149.46 7.81L149.46 7.81L149.46 7.81Q149.17 5.89 148.28 4.51L148.28 4.51L148.28 4.51Q147.40 3.12 148.11 3.12L148.11 3.12L148.11 3.12Q148.75 3.20 149.46 3.76L149.46 3.76L149.46 3.76Q149.88 4.26 150.45 5.50L150.45 5.50L150.45 5.50Q151.02 6.75 151.02 7.60L151.02 7.60L151.02 7.60Q150.95 9.59 149.10 10.72L149.10 10.72L149.10 10.72Q147.25 11.86 145.55 11.86L145.55 11.86L145.55 11.86Q142.21 11.86 139.02 8.56L139.02 8.56L139.02 8.56Q135.82 5.25 133.69 0.57L133.69 0.57L133.69 0.57Q131.56-4.12 130.71-9.02L130.71-9.02L130.71-9.02Q129.43-7.24 127.87-4.76L127.87-4.76L127.87-4.76Q124.68 0.14 124.04 0.57ZM147.25-34.51L147.25-34.51L147.25-34.51Q149.17-37.70 149.17-38.98L149.17-38.98L149.17-38.98Q149.17-40.26 148.11-40.26L148.11-40.26L148.11-40.26Q147.04-40.26 145.41-38.98L145.41-38.98L145.41-38.98Q140.86-35.50 137.74-31.06L137.74-31.06L137.74-31.06Q134.62-26.63 131.56-20.02L131.56-20.02L131.56-20.02Q138.17-23.08 143.56-29.25L143.56-29.25L143.56-29.25Q145.34-31.31 147.25-34.51ZM157.37 23.04L157.37 23.04L157.37 23.04Q157.19 23.36 157.02 23.50L157.02 23.50L157.02 23.50Q156.84 23.64 155.56 24.35L155.56 24.35L155.56 24.35Q154.28 25.06 153.25 25.06L153.25 25.06L153.25 25.06Q152.22 25.06 152.22 24.57L152.22 24.57L152.22 24.57Q152.22 24.35 152.37 24.00L152.37 24.00L152.37 24.00Q153.64 21.58 165.50-8.73L165.50-8.73L165.50-8.73Q163.30-8.45 162.24-8.45L162.24-8.45L162.24-8.45Q161.17-8.45 160.57-8.91L160.57-8.91L160.57-8.91Q159.96-9.37 159.96-10.12L159.96-10.12L159.96-10.12Q159.96-10.86 161.56-11.47L161.56-11.47L161.56-11.47Q163.16-12.07 164.01-12.07L164.01-12.07L164.01-12.07Q164.86-12.07 165.43-11.50L165.43-11.50L165.43-11.50Q166.00-10.93 166.21-10.93L166.21-10.93L166.42-10.93L168.48-16.19L168.48-16.19Q169.76-19.74 172.39-25.45L172.39-25.45L172.39-25.45Q175.02-31.17 177.15-34.58L177.15-34.58L177.15-34.58Q181.90-41.75 186.66-41.75L186.66-41.75L188.36-41.54L189.78-41.04L189.78-41.04Q191.84-39.83 191.84-37.74L191.84-37.74L191.84-37.74Q191.84-35.64 190.71-33.23L190.71-33.23L190.71-33.23Q188.79-29.11 182.90-22.51L182.90-22.51L182.90-22.51Q177.00-15.90 171.54-11.50L171.54-11.50L171.54-11.50Q177.36-12.00 179.03-12.00L179.03-12.00L179.03-12.00Q180.70-12.00 180.77-11.57L180.77-11.57L180.77-11.57Q180.77-11.29 179.42-10.90L179.42-10.90L179.42-10.90Q178.07-10.51 168.48-9.09L168.48-9.09L168.48-9.09Q160.03 12.35 159.89 15.48L159.89 15.48L159.89 15.48Q159.82 17.04 159.57 17.71L159.57 17.71L159.57 17.71Q159.32 18.39 158.97 19.28L158.97 19.28L158.97 19.28Q158.61 20.16 158.44 20.63L158.44 20.63L158.44 20.63Q158.26 21.09 158.05 21.66L158.05 21.66L158.05 21.66Q157.83 22.22 157.69 22.47L157.69 22.47L157.69 22.47Q157.55 22.72 157.37 23.04ZM188.72-34.22L188.72-34.22L188.72-34.22Q189.93-36.28 189.93-38.13L189.93-38.13L189.93-38.13Q189.93-39.97 188.58-39.97L188.58-39.97L188.58-39.97Q185.88-39.97 180.91-33.02L180.91-33.02L180.91-33.02Q178.00-28.90 175.73-24.85L175.73-24.85L175.73-24.85Q171.18-16.33 169.90-12.43L169.90-12.43L169.34-11.29L169.34-11.29Q174.31-14.98 179.91-21.80L179.91-21.80L179.91-21.80Q185.52-28.61 188.72-34.22ZM190.42 1.78L190.42 1.78L190.42 1.78Q186.80 1.78 186.80-2.59L186.80-2.59L186.80-2.59Q186.80-6.96 193.05-13.35L193.05-13.35L193.05-13.35Q193.55-13.85 193.76-14.13L193.76-14.13L194.26-14.84L194.26-14.84Q195.25-16.19 195.18-16.54L195.18-16.54L194.97-17.18L194.97-17.18Q194.68-18.03 192.62-18.42L192.62-18.42L192.62-18.42Q190.56-18.82 189.29-18.82L189.29-18.82L189.29-18.82Q182.90-9.80 181.90-8.52L181.90-8.52L181.90-8.52Q180.91-7.24 180.55-7.46L180.55-7.46L180.55-7.46Q180.20-7.67 180.20-7.95L180.20-7.95L180.20-7.95Q180.20-8.24 180.62-8.80L180.62-8.80L180.62-8.80Q184.46-13.49 187.23-18.82L187.23-18.82L187.23-18.82Q186.38-18.96 185.95-19.42L185.95-19.42L185.95-19.42Q185.52-19.88 185.88-20.98L185.88-20.98L185.88-20.98Q186.23-22.08 188.04-23.93L188.04-23.93L188.04-23.93Q189.85-25.77 191.20-26.41L191.20-26.41L191.20-26.41Q192.55-27.05 192.91-27.19L192.91-27.19L192.91-27.19Q193.26-27.34 193.69-27.34L193.69-27.34L193.69-27.34Q194.54-27.34 193.12-24.78L193.12-24.78L190.35-20.38L190.35-20.38Q193.55-20.16 195.82-20.16L195.82-20.16L198.30-20.24L198.30-20.24Q199.51-20.24 200.08-19.92L200.08-19.92L200.08-19.92Q200.65-19.60 200.36-18.82L200.36-18.82L200.36-18.82Q199.87-17.47 197.88-15.19L197.88-15.19L197.88-15.19Q193.62-10.22 191.49-4.62L191.49-4.62L191.49-4.62Q190.99-3.27 190.99-2.27L190.99-2.27L190.99-2.27Q190.99-0.21 192.48-0.21L192.48-0.21L192.48-0.21Q192.98-0.21 194.36-0.99L194.36-0.99L194.36-0.99Q195.75-1.78 199.01-4.72L199.01-4.72L199.01-4.72Q202.28-7.67 204.27-10.51L204.27-10.51L204.27-10.51Q204.55-10.86 204.94-10.69L204.94-10.69L204.94-10.69Q205.33-10.51 205.33-10.33L205.33-10.33L205.33-10.33Q205.33-10.15 205.19-9.94L205.19-9.94L205.19-9.94Q204.13-8.02 201.36-5.04L201.36-5.04L201.36-5.04Q198.59-2.06 195.96-0.21L195.96-0.21L195.96-0.21Q193.40 1.78 190.42 1.78ZM210.23-19.67L210.23-19.67L210.23-19.67Q212.01-19.67 212.36-18.53L212.36-18.53L212.36-18.53Q212.50-17.89 212.18-17.29L212.18-17.29L212.18-17.29Q211.86-16.69 211.72-16.33L211.72-16.33L211.72-16.33Q211.58-15.98 211.51-15.76L211.51-15.76L211.51-15.76Q211.15-15.05 210.80-14.41L210.80-14.41L210.80-14.41Q206.75-6.32 206.54-4.12L206.54-4.12L206.54-4.12Q206.47-3.48 206.47-2.49L206.47-2.49L206.47-2.49Q206.47-1.49 207.04-0.85L207.04-0.85L207.04-0.85Q208.03 0.28 209.88-0.71L209.88-0.71L209.88-0.71Q211.72-1.70 215.02-4.69L215.02-4.69L215.02-4.69Q218.33-7.67 220.38-10.51L220.38-10.51L220.38-10.51Q220.67-10.86 221.02-10.69L221.02-10.69L221.02-10.69Q221.38-10.51 221.38-10.33L221.38-10.33L221.38-10.33Q221.38-10.15 221.24-9.94L221.24-9.94L221.24-9.94Q220.17-8.02 217.40-5.04L217.40-5.04L217.40-5.04Q212.86-0.14 209.81 0.99L209.81 0.99L209.81 0.99Q208.03 1.63 206.82 1.63L206.82 1.63L206.82 1.63Q203.98 1.63 203.06-1.07L203.06-1.07L203.06-1.07Q202.92-1.56 202.92-2.27L202.92-2.27L202.92-2.27Q202.92-4.76 205.19-9.80L205.19-9.80L205.19-9.80Q204.84-9.02 202.42-6.25L202.42-6.25L202.42-6.25Q201.78-5.54 201.43-6.25L201.43-6.25L201.43-6.25Q201.36-6.39 201.36-6.64L201.36-6.64L201.36-6.64Q201.36-6.89 201.64-7.24L201.64-7.24L201.64-7.24Q205.12-11.57 207.11-14.56L207.11-14.56L207.11-14.56Q206.97-14.91 207.25-15.48L207.25-15.48L207.25-15.48Q208.67-19.45 209.73-19.67L209.73-19.67L209.73-19.67Q209.95-19.67 210.23-19.67ZM215.84-29.11L215.84-29.11L215.27-26.84L215.27-26.84Q215.27-26.20 214.35-24.78L214.35-24.78L214.35-24.78Q213.43-23.36 212.93-23.36L212.93-23.36L212.93-23.36Q209.88-23.36 209.88-24.85L209.88-24.85L209.88-24.85Q209.88-25.13 212.93-27.48L212.93-27.48L214.14-28.40L214.14-28.40Q215.27-29.39 215.56-29.39L215.56-29.39L215.56-29.39Q215.84-29.39 215.84-29.11ZM222.62-12.96L222.62-12.96L222.62-12.96Q225.78-15.76 229.19-17.75L229.19-17.75L229.19-17.75Q232.60-19.74 234.58-20.24L234.58-20.24L234.58-20.24Q236.57-20.73 238.49-20.73L238.49-20.73L238.49-20.73Q240.41-20.73 242.11-19.45L242.11-19.45L242.11-19.45Q251.84-42.03 260.71-42.03L260.71-42.03L260.71-42.03Q263.69-42.03 264.76-40.33L264.76-40.33L264.76-40.33Q265.26-39.48 265.26-38.84L265.26-38.84L265.26-38.84Q265.26-37.06 263.73-34.33L263.73-34.33L263.73-34.33Q262.20-31.60 259.01-28.33L259.01-28.33L259.01-28.33Q255.81-25.06 249.85-20.27L249.85-20.27L249.85-20.27Q243.89-15.48 243.25-14.91L243.25-14.91L243.25-14.91Q240.97-9.66 239.70-4.76L239.70-4.76L239.70-4.76Q238.42 0.14 238.42 2.56L238.42 2.56L238.42 2.56Q238.42 4.97 239.27 6.39L239.27 6.39L239.27 6.39Q239.70 7.31 240.55 7.49L240.55 7.49L240.55 7.49Q241.40 7.67 242.00 7.28L242.00 7.28L242.00 7.28Q242.61 6.89 242.93 6.60L242.93 6.60L242.93 6.60Q243.25 6.32 243.71 6.07L243.71 6.07L243.71 6.07Q244.17 5.82 244.38 5.96L244.38 5.96L244.38 5.96Q244.60 6.11 244.31 6.75L244.31 6.75L244.31 6.75Q243.74 7.46 243.25 7.95L243.25 7.95L243.25 7.95Q242.11 8.73 240.58 8.73L240.58 8.73L240.58 8.73Q239.06 8.73 238.56 8.66L238.56 8.66L238.56 8.66Q235.15 8.09 235.15 3.69L235.15 3.69L235.15 3.69Q235.15-0.57 236.29-4.19L236.29-4.19L236.29-4.19Q237.85-9.16 239.13-12.43L239.13-12.43L239.13-12.43Q227.77 0.78 223.01 0.78L223.01 0.78L223.01 0.78Q221.88 0.78 220.56 0.11L220.56 0.11L220.56 0.11Q219.25-0.57 218.33-1.81L218.33-1.81L218.33-1.81Q217.40-3.05 217.40-4.47L217.40-4.47L217.40-4.47Q217.40-5.89 218.04-7.17L218.04-7.17L218.04-7.17Q219.46-10.15 222.62-12.96ZM240.55-15.90L241.54-18.32L241.54-18.32Q240.69-18.74 238.56-18.74L238.56-18.74L238.56-18.74Q236.43-18.74 233.06-17.00L233.06-17.00L233.06-17.00Q229.69-15.27 226.70-12.64L226.70-12.64L226.70-12.64Q224.22-10.30 222.34-7.35L222.34-7.35L222.34-7.35Q220.46-4.40 220.46-3.05L220.46-3.05L220.46-3.05Q220.46-0.43 221.95-0.43L221.95-0.43L221.95-0.43Q223.44-0.43 226.49-2.84L226.49-2.84L226.49-2.84Q234.37-9.30 240.55-15.90L240.55-15.90ZM262.35-36.21L262.35-36.21L262.35-36.21Q263.27-37.91 263.27-39.09L263.27-39.09L263.27-39.09Q263.27-40.26 262.24-40.26L262.24-40.26L262.24-40.26Q261.21-40.26 259.51-38.98L259.51-38.98L259.51-38.98Q251.70-33.02 245.38-19.03L245.38-19.03L245.38-19.03Q249.99-22.01 255.03-26.98L255.03-26.98L255.03-26.98Q260.07-31.95 262.35-36.21ZM249.64 0.78L249.64 0.78L249.64 0.78Q248.50 0.78 247.19 0.11L247.19 0.11L247.19 0.11Q245.87-0.57 244.95-1.81L244.95-1.81L244.95-1.81Q244.03-3.05 244.03-4.47L244.03-4.47L244.03-4.47Q244.03-5.89 244.67-7.17L244.67-7.17L244.67-7.17Q246.09-10.15 249.25-12.96L249.25-12.96L249.25-12.96Q252.41-15.76 255.81-17.75L255.81-17.75L255.81-17.75Q259.22-19.74 261.21-20.24L261.21-20.24L261.21-20.24Q263.20-20.73 265.08-20.73L265.08-20.73L265.08-20.73Q266.96-20.73 268.31-19.77L268.31-19.77L268.31-19.77Q269.66-18.82 269.66-17.75L269.66-17.75L269.66-17.75Q269.66-17.40 269.59-17.32L269.59-17.32L269.59-17.32Q269.52-17.25 269.23-17.40L269.23-17.40L269.23-17.40Q268.38-18.74 265.72-18.74L265.72-18.74L265.72-18.74Q263.06-18.74 259.68-17.00L259.68-17.00L259.68-17.00Q256.31-15.27 253.33-12.64L253.33-12.64L253.33-12.64Q250.84-10.30 248.96-7.35L248.96-7.35L248.96-7.35Q247.08-4.40 247.08-3.05L247.08-3.05L247.08-3.05Q247.08-0.43 248.57-0.43L248.57-0.43L248.57-0.43Q250.06-0.43 253.12-2.84L253.12-2.84L253.12-2.84Q258.16-7.10 260.00-9.09L260.00-9.09L260.00-9.09Q266.53-16.12 267.03-16.12L267.03-16.12L267.03-16.12Q267.88-16.12 269.09-15.62L269.09-15.62L269.09-15.62Q270.30-15.12 269.87-14.41L269.87-14.41L269.87-14.41Q266.25-9.30 265.61-4.12L265.61-4.12L265.61-4.12Q265.54-3.48 265.54-2.49L265.54-2.49L265.54-2.49Q265.54-1.49 266.11-0.85L266.11-0.85L266.11-0.85Q267.17 0.28 269.02-0.71L269.02-0.71L269.02-0.71Q270.87-1.70 274.17-4.69L274.17-4.69L274.17-4.69Q277.47-7.67 279.46-10.51L279.46-10.51L279.46-10.51Q279.74-10.86 280.10-10.69L280.10-10.69L280.10-10.69Q280.45-10.51 280.45-10.37L280.45-10.37L280.45-10.37Q280.45-9.30 277.08-5.72L277.08-5.72L277.08-5.72Q273.71-2.13 271.93-0.85L271.93-0.85L271.93-0.85Q268.59 1.63 265.75 1.63L265.75 1.63L265.75 1.63Q263.06 1.63 262.13-1.07L262.13-1.07L262.13-1.07Q261.92-1.92 261.92-2.98L261.92-2.98L261.92-2.98Q261.92-6.18 263.27-9.73L263.27-9.73L263.27-9.73Q262.98-9.59 260.64-6.89L260.64-6.89L260.64-6.89Q258.30-4.19 255.21-1.70L255.21-1.70L255.21-1.70Q252.12 0.78 249.64 0.78ZM276.62 27.05L276.62 27.05L276.62 27.05Q276.05 27.05 275.20 26.84L275.20 26.84L275.20 26.84Q271.58 25.92 271.58 23.04L271.58 23.04L271.58 23.04Q271.58 20.16 275.30 15.83L275.30 15.83L275.30 15.83Q279.03 11.50 291.03 3.55L291.03 3.55L291.03 3.55Q297.70-10.08 299.48-15.55L299.48-15.55L299.48-15.55Q298.63-14.56 296.14-11.25L296.14-11.25L296.14-11.25Q293.66-7.95 291.74-5.64L291.74-5.64L291.74-5.64Q289.82-3.34 287.12-1.28L287.12-1.28L287.12-1.28Q284.43 0.78 282.15 0.78L282.15 0.78L282.15 0.78Q279.88 0.78 278.64-0.25L278.64-0.25L278.64-0.25Q277.40-1.28 277.26-2.41L277.26-2.41L277.26-2.41Q277.11-3.55 277.11-4.33L277.11-4.33L277.11-4.33Q277.11-6.96 278.53-9.59L278.53-9.59L278.53-9.59Q280.66-13.92 284.28-17.04L284.28-17.04L284.28-17.04Q285.63-18.32 286.66-18.32L286.66-18.32L286.66-18.32Q287.69-18.32 288.54-17.68L288.54-17.68L288.54-17.68Q289.47-16.69 289.11-15.98L289.11-15.98L289.11-15.98Q286.41-14.41 282.94-9.94L282.94-9.94L282.94-9.94Q281.09-7.53 280.38-3.83L280.38-3.83L280.38-3.83Q280.31-3.34 280.31-2.59L280.31-2.59L280.31-2.59Q280.31-1.85 280.91-1.38L280.91-1.38L280.91-1.38Q281.52-0.92 282.15-0.92L282.15-0.92L282.15-0.92Q284.36-0.92 286.77-3.27L286.77-3.27L286.77-3.27Q289.18-5.61 291.38-8.20L291.38-8.20L291.38-8.20Q293.59-10.79 296.39-14.41L296.39-14.41L296.39-14.41Q299.19-18.03 300.08-19.17L300.08-19.17L300.08-19.17Q300.97-20.31 301.89-20.31L301.89-20.31L301.89-20.31Q303.03-20.31 304.24-19.67L304.24-19.67L304.24-19.67Q305.44-19.03 305.26-18.67L305.26-18.67L305.26-18.67Q305.09-18.32 301.64-10.61L301.64-10.61L301.64-10.61Q298.20-2.91 296.64 0.43L296.64 0.43L296.64 0.43Q298.34-0.50 302.42-3.94L302.42-3.94L302.42-3.94Q306.51-7.38 309.35-10.93L309.35-10.93L309.35-10.93Q310.06-11.79 310.27-11.08L310.27-11.08L310.27-11.08Q310.34-10.93 310.34-10.61L310.34-10.61L310.34-10.61Q310.34-10.30 309.92-9.73L309.92-9.73L309.92-9.73Q307.71-6.82 302.89-2.41L302.89-2.41L302.89-2.41Q298.06 1.99 295.22 3.55L295.22 3.55L295.22 3.55Q289.18 15.98 287.12 19.17L287.12 19.17L287.12 19.17Q281.80 27.05 276.62 27.05ZM289.68 6.25L289.68 6.25L289.68 6.25Q281.16 12.64 277.50 16.33L277.50 16.33L277.50 16.33Q273.85 20.02 273.85 22.68L273.85 22.68L273.85 22.68Q273.85 25.35 275.69 25.35L275.69 25.35L275.69 25.35Q277.11 25.35 278.96 23.89L278.96 23.89L278.96 23.89Q280.81 22.44 282.51 20.02L282.51 20.02L282.51 20.02Q284.21 17.61 285.10 15.87L285.10 15.87L285.10 15.87Q285.99 14.13 287.55 10.76L287.55 10.76L287.55 10.76Q289.11 7.38 289.68 6.25Z" fill="#f00" stroke="#0f0" stroke-width="1.8"></path></g></g><g><g transform="translate(97.02864801883698, 109.54000854492188)"><path d="M1.21-24.07L1.21-24.07L1.07-25.21L1.07-25.21Q1.35-28.19 4.51-31.10L4.51-31.10L4.51-31.10Q7.67-34.01 12.50-36.64L12.50-36.64L12.50-36.64Q17.32-39.26 27.83-41.04L27.83-41.04L27.83-41.04Q33.80-41.96 37.81-41.96L37.81-41.96L37.81-41.96Q41.82-41.96 44.87-41.29L44.87-41.29L44.87-41.29Q47.93-40.61 49.91-38.62L49.91-38.62L49.91-38.62Q51.90-36.64 51.90-33.90L51.90-33.90L51.90-33.90Q51.90-31.17 49.59-28.76L49.59-28.76L49.59-28.76Q47.29-26.34 43.81-25.06L43.81-25.06L43.81-25.06Q37.06-22.58 30.89-22.29L30.89-22.29L30.89-22.29Q33.94-20.45 35.93-19.06L35.93-19.06L35.93-19.06Q37.91-17.68 40.19-15.41L40.19-15.41L40.19-15.41Q42.46-13.14 43.10-11.50L43.10-11.50L43.10-11.50Q43.74-9.87 43.74-8.59L43.74-8.59L43.74-8.59Q43.74-4.40 40.54-0.57L40.54-0.57L40.54-0.57Q38.41 2.06 34.61 3.62L34.61 3.62L34.61 3.62Q30.81 5.18 26.55 5.18L26.55 5.18L26.55 5.18Q17.47 5.18 16.61-1.21L16.61-1.21L16.61-1.21Q16.47-1.35 16.47-1.63L16.47-1.63L16.47-1.63Q13.77 2.70 12.00 2.70L12.00 2.70L12.00 2.70Q11.50 2.70 10.40 2.45L10.40 2.45L10.40 2.45Q9.30 2.20 9.27 1.92L9.27 1.92L9.27 1.92Q9.23 1.63 9.23 0.71L9.23 0.71L9.23 0.71Q9.23-0.21 10.58-3.73L10.58-3.73L10.58-3.73Q11.93-7.24 13.63-10.65L13.63-10.65L13.63-10.65Q16.97-17.04 20.24-23.00L20.24-23.00L20.24-23.00Q20.80-24.28 20.80-24.92L20.80-24.92L20.80-24.92Q20.80-25.56 20.73-25.92L20.73-25.92L20.73-25.92Q21.02-27.90 24.18-31.13L24.18-31.13L24.18-31.13Q27.34-34.36 29.89-34.36L29.89-34.36L29.89-34.36Q30.74-34.36 32.16-33.73L32.16-33.73L32.16-33.73Q33.58-33.09 33.87-31.95L33.87-31.95L33.87-31.95Q33.94-31.45 33.90-31.35L33.90-31.35L33.90-31.35Q33.87-31.24 33.51-31.38L33.51-31.38L33.51-31.38Q33.16-31.52 33.09-31.52L33.09-31.52L33.09-31.52Q30.81-31.52 27.65-28.15L27.65-28.15L27.65-28.15Q24.50-24.78 21.58-19.88L21.58-19.88L21.58-19.88Q15.55-9.94 12.92-3.55L12.92-3.55L12.92-3.55Q12.35-2.13 12.35-1.35L12.35-1.35L12.35-1.35Q12.35-0.28 13.28-0.28L13.28-0.28L13.28-0.28Q14.20-0.28 15.76-2.24L15.76-2.24L15.76-2.24Q17.32-4.19 17.96-4.15L17.96-4.15L17.96-4.15Q18.60-4.12 18.99-3.76L18.99-3.76L18.99-3.76Q19.38-3.41 19.53-3.02L19.53-3.02L19.53-3.02Q19.67-2.63 19.74-1.92L19.74-1.92L19.74-1.92Q19.81-1.21 19.88-0.99L19.88-0.99L19.88-0.99Q21.02 4.05 27.05 4.05L27.05 4.05L27.05 4.05Q27.19 4.05 27.34 4.05L27.34 4.05L27.34 4.05Q32.23 4.05 35.71 1.78L35.71 1.78L35.71 1.78Q39.55-0.78 39.55-4.58L39.55-4.58L39.55-4.58Q39.55-8.38 36.00-12.57L36.00-12.57L36.00-12.57Q34.86-13.85 32.66-15.76L32.66-15.76L32.66-15.76Q27.97-19.81 27.83-20.95L27.83-20.95L27.83-20.95Q27.69-22.08 28.79-22.83L28.79-22.83L28.79-22.83Q29.89-23.57 30.81-23.57L30.81-23.57L30.81-23.57Q34.29-23.57 40.33-26.06L40.33-26.06L40.33-26.06Q49.20-29.68 49.84-34.08L49.84-34.08L49.84-34.08Q49.84-34.36 49.84-34.51L49.84-34.51L49.84-34.51Q49.84-35.78 48.71-36.92L48.71-36.92L48.71-36.92Q46.79-38.98 40.61-38.98L40.61-38.98L40.61-38.98Q32.16-38.98 20.95-35.93L20.95-35.93L20.95-35.93Q14.13-34.08 8.95-30.67L8.95-30.67L8.95-30.67Q3.27-26.91 3.27-22.65L3.27-22.65L3.27-22.65Q3.27-21.73 3.83-20.84L3.83-20.84L3.83-20.84Q4.40-19.95 5.15-19.56L5.15-19.56L5.15-19.56Q5.89-19.17 7.10-18.71L7.10-18.71L7.10-18.71Q8.31-18.25 8.84-18.00L8.84-18.00L8.84-18.00Q9.37-17.75 9.19-17.40L9.19-17.40L9.19-17.40Q9.02-17.04 8.17-17.18L8.17-17.18L8.17-17.18Q5.82-17.32 3.48-19.13L3.48-19.13L3.48-19.13Q1.14-20.95 1.14-23.36L1.14-23.36L1.14-23.36Q1.14-23.71 1.21-24.07ZM73.91-36.21L73.91-36.21L73.91-36.21Q74.76-37.77 74.76-38.62L74.76-38.62L74.76-38.62Q74.76-40.12 73.56-40.12L73.56-40.12L73.56-40.12Q72.56-40.12 71.07-38.98L71.07-38.98L71.07-38.98Q65.39-34.58 60.07-25.06L60.07-25.06L60.07-25.06Q55.81-17.40 53.82-11.93L53.82-11.93L53.82-11.93Q58.72-15.27 64.79-22.79L64.79-22.79L64.79-22.79Q70.86-30.32 73.91-36.21ZM52.75-9.09L52.75-9.09L52.75-9.09Q51.90-6.67 51.83-5.86L51.83-5.86L51.83-5.86Q51.76-5.04 51.76-3.66L51.76-3.66L51.76-3.66Q51.76-2.27 52.47-1.14L52.47-1.14L52.47-1.14Q53.68 0.78 56.52-0.85L56.52-0.85L56.52-0.85Q58.65-1.99 61.91-5.01L61.91-5.01L61.91-5.01Q65.18-8.02 66.95-10.51L66.95-10.51L66.95-10.51Q67.09-10.72 67.38-10.72L67.38-10.72L67.38-10.72Q68.02-10.72 67.73-9.80L67.73-9.80L67.73-9.80Q66.67-7.88 63.79-4.90L63.79-4.90L63.79-4.90Q60.92-1.92 58.58-0.18L58.58-0.18L58.58-0.18Q56.23 1.56 53.89 1.56L53.89 1.56L53.89 1.56Q48.49 1.56 48.49-3.69L48.49-3.69L48.49-3.69Q48.49-3.91 48.49-4.12L48.49-4.12L48.49-4.12Q48.78-9.09 53.53-19.13L53.53-19.13L53.53-19.13Q58.29-29.18 62.13-34.29L62.13-34.29L64.33-37.06L64.33-37.06Q65.11-37.99 66.60-39.33L66.60-39.33L66.60-39.33Q69.44-42.03 72.46-42.03L72.46-42.03L72.46-42.03Q75.47-42.03 76.54-40.19L76.54-40.19L76.54-40.19Q76.89-39.55 76.89-38.34L76.89-38.34L76.89-38.34Q76.89-37.13 75.83-34.93L75.83-34.93L75.83-34.93Q68.52-22.22 52.75-9.09ZM69.51 0.78L69.51 0.78L69.51 0.78Q68.37 0.78 67.06 0.11L67.06 0.11L67.06 0.11Q65.75-0.57 64.82-1.81L64.82-1.81L64.82-1.81Q63.90-3.05 63.90-4.47L63.90-4.47L63.90-4.47Q63.90-5.89 64.54-7.17L64.54-7.17L64.54-7.17Q65.96-10.15 69.12-12.96L69.12-12.96L69.12-12.96Q72.28-15.76 75.69-17.75L75.69-17.75L75.69-17.75Q79.09-19.74 81.08-20.24L81.08-20.24L81.08-20.24Q83.07-20.73 84.95-20.73L84.95-20.73L84.95-20.73Q86.83-20.73 88.18-19.77L88.18-19.77L88.18-19.77Q89.53-18.82 89.53-17.75L89.53-17.75L89.53-17.75Q89.53-17.40 89.46-17.32L89.46-17.32L89.46-17.32Q89.39-17.25 89.11-17.40L89.11-17.40L89.11-17.40Q88.25-18.74 85.59-18.74L85.59-18.74L85.59-18.74Q82.93-18.74 79.56-17.00L79.56-17.00L79.56-17.00Q76.18-15.27 73.20-12.64L73.20-12.64L73.20-12.64Q70.72-10.30 68.83-7.35L68.83-7.35L68.83-7.35Q66.95-4.40 66.95-3.05L66.95-3.05L66.95-3.05Q66.95-0.43 68.44-0.43L68.44-0.43L68.44-0.43Q69.94-0.43 72.99-2.84L72.99-2.84L72.99-2.84Q78.03-7.10 79.88-9.09L79.88-9.09L79.88-9.09Q86.41-16.12 86.90-16.12L86.90-16.12L86.90-16.12Q87.76-16.12 88.96-15.62L88.96-15.62L88.96-15.62Q90.17-15.12 89.74-14.41L89.74-14.41L89.74-14.41Q86.12-9.30 85.48-4.12L85.48-4.12L85.48-4.12Q85.41-3.48 85.41-2.49L85.41-2.49L85.41-2.49Q85.41-1.49 85.98-0.85L85.98-0.85L85.98-0.85Q87.05 0.28 88.89-0.71L88.89-0.71L88.89-0.71Q90.74-1.70 94.04-4.69L94.04-4.69L94.04-4.69Q97.34-7.67 99.33-10.51L99.33-10.51L99.33-10.51Q99.61-10.86 99.97-10.69L99.97-10.69L99.97-10.69Q100.32-10.51 100.32-10.37L100.32-10.37L100.32-10.37Q100.32-9.30 96.95-5.72L96.95-5.72L96.95-5.72Q93.58-2.13 91.80-0.85L91.80-0.85L91.80-0.85Q88.47 1.63 85.63 1.63L85.63 1.63L85.63 1.63Q82.93 1.63 82.01-1.07L82.01-1.07L82.01-1.07Q81.79-1.92 81.79-2.98L81.79-2.98L81.79-2.98Q81.79-6.18 83.14-9.73L83.14-9.73L83.14-9.73Q82.86-9.59 80.51-6.89L80.51-6.89L80.51-6.89Q78.17-4.19 75.08-1.70L75.08-1.70L75.08-1.70Q71.99 0.78 69.51 0.78ZM116.23-15.62L116.23-15.62L116.58-17.04L116.58-17.04Q116.58-18.46 115.52-18.46L115.52-18.46L115.52-18.46Q112.61-18.46 107.56-13.92L107.56-13.92L107.56-13.92Q102.52-9.37 101.17-4.76L101.17-4.76L101.17-4.76Q100.82-3.55 100.82-2.59L100.82-2.59L100.82-2.59Q100.82-1.63 101.25-0.99L101.25-0.99L101.25-0.99Q102.10 0.28 103.87 0.28L103.87 0.28L103.87 0.28Q105.65 0.28 107.71-0.21L107.71-0.21L107.71-0.21Q112.25-1.49 115.27-3.87L115.27-3.87L115.27-3.87Q118.29-6.25 121.62-10.51L121.62-10.51L121.62-10.51Q121.91-10.86 122.30-10.72L122.30-10.72L122.30-10.72Q122.69-10.58 122.69-10.33L122.69-10.33L122.69-10.33Q122.69-10.08 122.48-9.59L122.48-9.59L122.48-9.59Q119.07-4.97 115.34-2.09L115.34-2.09L115.34-2.09Q111.61 0.78 106.71 1.63L106.71 1.63L106.71 1.63Q105.29 1.85 104.09 1.85L104.09 1.85L104.09 1.85Q100.61 1.85 98.80 0.14L98.80 0.14L98.80 0.14Q96.99-1.56 96.99-3.62L96.99-3.62L96.99-3.62Q96.99-5.68 97.98-8.09L97.98-8.09L97.98-8.09Q99.75-12.14 105.58-16.40L105.58-16.40L105.58-16.40Q111.40-20.66 114.81-20.66L114.81-20.66L114.81-20.66Q115.66-20.66 116.44-20.45L116.44-20.45L116.44-20.45Q118.43-19.74 118.43-18.18L118.43-18.18L118.43-18.18Q118.43-17.11 117.65-15.76L117.65-15.76L117.65-15.76Q116.87-14.41 116.48-14.80L116.48-14.80L116.48-14.80Q116.09-15.19 116.23-15.62ZM124.04 0.57L124.04 0.57L124.04 0.57Q121.48 1.85 120.77 1.85L120.77 1.85L120.77 1.85Q120.06 1.85 120.06 1.63L120.06 1.63L120.06 1.63Q120.06 1.42 120.17 1.17L120.17 1.17L120.17 1.17Q120.27 0.92 121.16-1.49L121.16-1.49L121.16-1.49Q122.05-3.91 123.40-7.60L123.40-7.60L123.40-7.60Q124.75-11.29 125.74-13.77L125.74-13.77L125.74-13.77Q124.11-12.00 121.91-8.88L121.91-8.88L121.91-8.88Q121.55-8.38 120.95-8.59L120.95-8.59L120.95-8.59Q120.35-8.80 121.34-10.08L121.34-10.08L121.34-10.08Q123.68-12.92 127.23-18.25L127.23-18.25L127.23-18.25Q126.17-18.82 126.17-19.35L126.17-19.35L126.17-19.35Q126.17-19.88 126.31-20.16L126.31-20.16L126.31-20.16Q126.66-21.02 127.59-20.52L127.59-20.52L127.59-20.52Q128.01-20.38 128.16-20.38L128.16-20.38L128.16-20.38Q131.28-28.61 135.97-35.07L135.97-35.07L135.97-35.07Q138.52-38.70 141.29-40.36L141.29-40.36L141.29-40.36Q144.06-42.03 146.47-42.03L146.47-42.03L146.47-42.03Q148.18-42.03 149.74-41.22L149.74-41.22L149.74-41.22Q151.30-40.40 151.30-38.55L151.30-38.55L151.30-38.55Q151.30-35.00 145.20-28.26L145.20-28.26L145.20-28.26Q141.93-24.78 137.88-21.87L137.88-21.87L137.88-21.87Q133.84-18.96 130.71-17.61L130.71-17.61L130.71-17.61Q127.94-11.50 125.81-4.83L125.81-4.83L130.43-10.86L130.43-10.86Q130.36-11.50 130.36-12.21L130.36-12.21L130.36-12.21Q130.36-14.34 131.28-14.84L131.28-14.84L131.28-14.84Q131.78-15.05 131.92-13.99L131.92-13.99L132.20-12.99L132.20-12.99Q137.67-19.38 140.08-20.52L140.08-20.52L140.08-20.52Q141.22-21.09 142.14-21.09L142.14-21.09L142.14-21.09Q143.07-21.09 143.78-20.59L143.78-20.59L143.78-20.59Q144.49-20.09 144.49-19.53L144.49-19.53L144.49-19.53Q144.49-18.53 142.85-17.75L142.85-17.75L142.85-17.75Q135.04-13.99 132.56-11.36L132.56-11.36L132.56-11.36Q134.26-5.40 135.89-1.99L135.89-1.99L135.89-1.99Q137.53 1.42 141.04 5.68L141.04 5.68L141.04 5.68Q144.56 9.94 147.47 9.94L147.47 9.94L147.47 9.94Q149.88 9.94 149.46 7.81L149.46 7.81L149.46 7.81Q149.17 5.89 148.28 4.51L148.28 4.51L148.28 4.51Q147.40 3.12 148.11 3.12L148.11 3.12L148.11 3.12Q148.75 3.20 149.46 3.76L149.46 3.76L149.46 3.76Q149.88 4.26 150.45 5.50L150.45 5.50L150.45 5.50Q151.02 6.75 151.02 7.60L151.02 7.60L151.02 7.60Q150.95 9.59 149.10 10.72L149.10 10.72L149.10 10.72Q147.25 11.86 145.55 11.86L145.55 11.86L145.55 11.86Q142.21 11.86 139.02 8.56L139.02 8.56L139.02 8.56Q135.82 5.25 133.69 0.57L133.69 0.57L133.69 0.57Q131.56-4.12 130.71-9.02L130.71-9.02L130.71-9.02Q129.43-7.24 127.87-4.76L127.87-4.76L127.87-4.76Q124.68 0.14 124.04 0.57ZM147.25-34.51L147.25-34.51L147.25-34.51Q149.17-37.70 149.17-38.98L149.17-38.98L149.17-38.98Q149.17-40.26 148.11-40.26L148.11-40.26L148.11-40.26Q147.04-40.26 145.41-38.98L145.41-38.98L145.41-38.98Q140.86-35.50 137.74-31.06L137.74-31.06L137.74-31.06Q134.62-26.63 131.56-20.02L131.56-20.02L131.56-20.02Q138.17-23.08 143.56-29.25L143.56-29.25L143.56-29.25Q145.34-31.31 147.25-34.51ZM157.37 23.04L157.37 23.04L157.37 23.04Q157.19 23.36 157.02 23.50L157.02 23.50L157.02 23.50Q156.84 23.64 155.56 24.35L155.56 24.35L155.56 24.35Q154.28 25.06 153.25 25.06L153.25 25.06L153.25 25.06Q152.22 25.06 152.22 24.57L152.22 24.57L152.22 24.57Q152.22 24.35 152.37 24.00L152.37 24.00L152.37 24.00Q153.64 21.58 165.50-8.73L165.50-8.73L165.50-8.73Q163.30-8.45 162.24-8.45L162.24-8.45L162.24-8.45Q161.17-8.45 160.57-8.91L160.57-8.91L160.57-8.91Q159.96-9.37 159.96-10.12L159.96-10.12L159.96-10.12Q159.96-10.86 161.56-11.47L161.56-11.47L161.56-11.47Q163.16-12.07 164.01-12.07L164.01-12.07L164.01-12.07Q164.86-12.07 165.43-11.50L165.43-11.50L165.43-11.50Q166.00-10.93 166.21-10.93L166.21-10.93L166.42-10.93L168.48-16.19L168.48-16.19Q169.76-19.74 172.39-25.45L172.39-25.45L172.39-25.45Q175.02-31.17 177.15-34.58L177.15-34.58L177.15-34.58Q181.90-41.75 186.66-41.75L186.66-41.75L188.36-41.54L189.78-41.04L189.78-41.04Q191.84-39.83 191.84-37.74L191.84-37.74L191.84-37.74Q191.84-35.64 190.71-33.23L190.71-33.23L190.71-33.23Q188.79-29.11 182.90-22.51L182.90-22.51L182.90-22.51Q177.00-15.90 171.54-11.50L171.54-11.50L171.54-11.50Q177.36-12.00 179.03-12.00L179.03-12.00L179.03-12.00Q180.70-12.00 180.77-11.57L180.77-11.57L180.77-11.57Q180.77-11.29 179.42-10.90L179.42-10.90L179.42-10.90Q178.07-10.51 168.48-9.09L168.48-9.09L168.48-9.09Q160.03 12.35 159.89 15.48L159.89 15.48L159.89 15.48Q159.82 17.04 159.57 17.71L159.57 17.71L159.57 17.71Q159.32 18.39 158.97 19.28L158.97 19.28L158.97 19.28Q158.61 20.16 158.44 20.63L158.44 20.63L158.44 20.63Q158.26 21.09 158.05 21.66L158.05 21.66L158.05 21.66Q157.83 22.22 157.69 22.47L157.69 22.47L157.69 22.47Q157.55 22.72 157.37 23.04ZM188.72-34.22L188.72-34.22L188.72-34.22Q189.93-36.28 189.93-38.13L189.93-38.13L189.93-38.13Q189.93-39.97 188.58-39.97L188.58-39.97L188.58-39.97Q185.88-39.97 180.91-33.02L180.91-33.02L180.91-33.02Q178.00-28.90 175.73-24.85L175.73-24.85L175.73-24.85Q171.18-16.33 169.90-12.43L169.90-12.43L169.34-11.29L169.34-11.29Q174.31-14.98 179.91-21.80L179.91-21.80L179.91-21.80Q185.52-28.61 188.72-34.22ZM190.42 1.78L190.42 1.78L190.42 1.78Q186.80 1.78 186.80-2.59L186.80-2.59L186.80-2.59Q186.80-6.96 193.05-13.35L193.05-13.35L193.05-13.35Q193.55-13.85 193.76-14.13L193.76-14.13L194.26-14.84L194.26-14.84Q195.25-16.19 195.18-16.54L195.18-16.54L194.97-17.18L194.97-17.18Q194.68-18.03 192.62-18.42L192.62-18.42L192.62-18.42Q190.56-18.82 189.29-18.82L189.29-18.82L189.29-18.82Q182.90-9.80 181.90-8.52L181.90-8.52L181.90-8.52Q180.91-7.24 180.55-7.46L180.55-7.46L180.55-7.46Q180.20-7.67 180.20-7.95L180.20-7.95L180.20-7.95Q180.20-8.24 180.62-8.80L180.62-8.80L180.62-8.80Q184.46-13.49 187.23-18.82L187.23-18.82L187.23-18.82Q186.38-18.96 185.95-19.42L185.95-19.42L185.95-19.42Q185.52-19.88 185.88-20.98L185.88-20.98L185.88-20.98Q186.23-22.08 188.04-23.93L188.04-23.93L188.04-23.93Q189.85-25.77 191.20-26.41L191.20-26.41L191.20-26.41Q192.55-27.05 192.91-27.19L192.91-27.19L192.91-27.19Q193.26-27.34 193.69-27.34L193.69-27.34L193.69-27.34Q194.54-27.34 193.12-24.78L193.12-24.78L190.35-20.38L190.35-20.38Q193.55-20.16 195.82-20.16L195.82-20.16L198.30-20.24L198.30-20.24Q199.51-20.24 200.08-19.92L200.08-19.92L200.08-19.92Q200.65-19.60 200.36-18.82L200.36-18.82L200.36-18.82Q199.87-17.47 197.88-15.19L197.88-15.19L197.88-15.19Q193.62-10.22 191.49-4.62L191.49-4.62L191.49-4.62Q190.99-3.27 190.99-2.27L190.99-2.27L190.99-2.27Q190.99-0.21 192.48-0.21L192.48-0.21L192.48-0.21Q192.98-0.21 194.36-0.99L194.36-0.99L194.36-0.99Q195.75-1.78 199.01-4.72L199.01-4.72L199.01-4.72Q202.28-7.67 204.27-10.51L204.27-10.51L204.27-10.51Q204.55-10.86 204.94-10.69L204.94-10.69L204.94-10.69Q205.33-10.51 205.33-10.33L205.33-10.33L205.33-10.33Q205.33-10.15 205.19-9.94L205.19-9.94L205.19-9.94Q204.13-8.02 201.36-5.04L201.36-5.04L201.36-5.04Q198.59-2.06 195.96-0.21L195.96-0.21L195.96-0.21Q193.40 1.78 190.42 1.78ZM210.23-19.67L210.23-19.67L210.23-19.67Q212.01-19.67 212.36-18.53L212.36-18.53L212.36-18.53Q212.50-17.89 212.18-17.29L212.18-17.29L212.18-17.29Q211.86-16.69 211.72-16.33L211.72-16.33L211.72-16.33Q211.58-15.98 211.51-15.76L211.51-15.76L211.51-15.76Q211.15-15.05 210.80-14.41L210.80-14.41L210.80-14.41Q206.75-6.32 206.54-4.12L206.54-4.12L206.54-4.12Q206.47-3.48 206.47-2.49L206.47-2.49L206.47-2.49Q206.47-1.49 207.04-0.85L207.04-0.85L207.04-0.85Q208.03 0.28 209.88-0.71L209.88-0.71L209.88-0.71Q211.72-1.70 215.02-4.69L215.02-4.69L215.02-4.69Q218.33-7.67 220.38-10.51L220.38-10.51L220.38-10.51Q220.67-10.86 221.02-10.69L221.02-10.69L221.02-10.69Q221.38-10.51 221.38-10.33L221.38-10.33L221.38-10.33Q221.38-10.15 221.24-9.94L221.24-9.94L221.24-9.94Q220.17-8.02 217.40-5.04L217.40-5.04L217.40-5.04Q212.86-0.14 209.81 0.99L209.81 0.99L209.81 0.99Q208.03 1.63 206.82 1.63L206.82 1.63L206.82 1.63Q203.98 1.63 203.06-1.07L203.06-1.07L203.06-1.07Q202.92-1.56 202.92-2.27L202.92-2.27L202.92-2.27Q202.92-4.76 205.19-9.80L205.19-9.80L205.19-9.80Q204.84-9.02 202.42-6.25L202.42-6.25L202.42-6.25Q201.78-5.54 201.43-6.25L201.43-6.25L201.43-6.25Q201.36-6.39 201.36-6.64L201.36-6.64L201.36-6.64Q201.36-6.89 201.64-7.24L201.64-7.24L201.64-7.24Q205.12-11.57 207.11-14.56L207.11-14.56L207.11-14.56Q206.97-14.91 207.25-15.48L207.25-15.48L207.25-15.48Q208.67-19.45 209.73-19.67L209.73-19.67L209.73-19.67Q209.95-19.67 210.23-19.67ZM215.84-29.11L215.84-29.11L215.27-26.84L215.27-26.84Q215.27-26.20 214.35-24.78L214.35-24.78L214.35-24.78Q213.43-23.36 212.93-23.36L212.93-23.36L212.93-23.36Q209.88-23.36 209.88-24.85L209.88-24.85L209.88-24.85Q209.88-25.13 212.93-27.48L212.93-27.48L214.14-28.40L214.14-28.40Q215.27-29.39 215.56-29.39L215.56-29.39L215.56-29.39Q215.84-29.39 215.84-29.11ZM222.62-12.96L222.62-12.96L222.62-12.96Q225.78-15.76 229.19-17.75L229.19-17.75L229.19-17.75Q232.60-19.74 234.58-20.24L234.58-20.24L234.58-20.24Q236.57-20.73 238.49-20.73L238.49-20.73L238.49-20.73Q240.41-20.73 242.11-19.45L242.11-19.45L242.11-19.45Q251.84-42.03 260.71-42.03L260.71-42.03L260.71-42.03Q263.69-42.03 264.76-40.33L264.76-40.33L264.76-40.33Q265.26-39.48 265.26-38.84L265.26-38.84L265.26-38.84Q265.26-37.06 263.73-34.33L263.73-34.33L263.73-34.33Q262.20-31.60 259.01-28.33L259.01-28.33L259.01-28.33Q255.81-25.06 249.85-20.27L249.85-20.27L249.85-20.27Q243.89-15.48 243.25-14.91L243.25-14.91L243.25-14.91Q240.97-9.66 239.70-4.76L239.70-4.76L239.70-4.76Q238.42 0.14 238.42 2.56L238.42 2.56L238.42 2.56Q238.42 4.97 239.27 6.39L239.27 6.39L239.27 6.39Q239.70 7.31 240.55 7.49L240.55 7.49L240.55 7.49Q241.40 7.67 242.00 7.28L242.00 7.28L242.00 7.28Q242.61 6.89 242.93 6.60L242.93 6.60L242.93 6.60Q243.25 6.32 243.71 6.07L243.71 6.07L243.71 6.07Q244.17 5.82 244.38 5.96L244.38 5.96L244.38 5.96Q244.60 6.11 244.31 6.75L244.31 6.75L244.31 6.75Q243.74 7.46 243.25 7.95L243.25 7.95L243.25 7.95Q242.11 8.73 240.58 8.73L240.58 8.73L240.58 8.73Q239.06 8.73 238.56 8.66L238.56 8.66L238.56 8.66Q235.15 8.09 235.15 3.69L235.15 3.69L235.15 3.69Q235.15-0.57 236.29-4.19L236.29-4.19L236.29-4.19Q237.85-9.16 239.13-12.43L239.13-12.43L239.13-12.43Q227.77 0.78 223.01 0.78L223.01 0.78L223.01 0.78Q221.88 0.78 220.56 0.11L220.56 0.11L220.56 0.11Q219.25-0.57 218.33-1.81L218.33-1.81L218.33-1.81Q217.40-3.05 217.40-4.47L217.40-4.47L217.40-4.47Q217.40-5.89 218.04-7.17L218.04-7.17L218.04-7.17Q219.46-10.15 222.62-12.96ZM240.55-15.90L241.54-18.32L241.54-18.32Q240.69-18.74 238.56-18.74L238.56-18.74L238.56-18.74Q236.43-18.74 233.06-17.00L233.06-17.00L233.06-17.00Q229.69-15.27 226.70-12.64L226.70-12.64L226.70-12.64Q224.22-10.30 222.34-7.35L222.34-7.35L222.34-7.35Q220.46-4.40 220.46-3.05L220.46-3.05L220.46-3.05Q220.46-0.43 221.95-0.43L221.95-0.43L221.95-0.43Q223.44-0.43 226.49-2.84L226.49-2.84L226.49-2.84Q234.37-9.30 240.55-15.90L240.55-15.90ZM262.35-36.21L262.35-36.21L262.35-36.21Q263.27-37.91 263.27-39.09L263.27-39.09L263.27-39.09Q263.27-40.26 262.24-40.26L262.24-40.26L262.24-40.26Q261.21-40.26 259.51-38.98L259.51-38.98L259.51-38.98Q251.70-33.02 245.38-19.03L245.38-19.03L245.38-19.03Q249.99-22.01 255.03-26.98L255.03-26.98L255.03-26.98Q260.07-31.95 262.35-36.21ZM249.64 0.78L249.64 0.78L249.64 0.78Q248.50 0.78 247.19 0.11L247.19 0.11L247.19 0.11Q245.87-0.57 244.95-1.81L244.95-1.81L244.95-1.81Q244.03-3.05 244.03-4.47L244.03-4.47L244.03-4.47Q244.03-5.89 244.67-7.17L244.67-7.17L244.67-7.17Q246.09-10.15 249.25-12.96L249.25-12.96L249.25-12.96Q252.41-15.76 255.81-17.75L255.81-17.75L255.81-17.75Q259.22-19.74 261.21-20.24L261.21-20.24L261.21-20.24Q263.20-20.73 265.08-20.73L265.08-20.73L265.08-20.73Q266.96-20.73 268.31-19.77L268.31-19.77L268.31-19.77Q269.66-18.82 269.66-17.75L269.66-17.75L269.66-17.75Q269.66-17.40 269.59-17.32L269.59-17.32L269.59-17.32Q269.52-17.25 269.23-17.40L269.23-17.40L269.23-17.40Q268.38-18.74 265.72-18.74L265.72-18.74L265.72-18.74Q263.06-18.74 259.68-17.00L259.68-17.00L259.68-17.00Q256.31-15.27 253.33-12.64L253.33-12.64L253.33-12.64Q250.84-10.30 248.96-7.35L248.96-7.35L248.96-7.35Q247.08-4.40 247.08-3.05L247.08-3.05L247.08-3.05Q247.08-0.43 248.57-0.43L248.57-0.43L248.57-0.43Q250.06-0.43 253.12-2.84L253.12-2.84L253.12-2.84Q258.16-7.10 260.00-9.09L260.00-9.09L260.00-9.09Q266.53-16.12 267.03-16.12L267.03-16.12L267.03-16.12Q267.88-16.12 269.09-15.62L269.09-15.62L269.09-15.62Q270.30-15.12 269.87-14.41L269.87-14.41L269.87-14.41Q266.25-9.30 265.61-4.12L265.61-4.12L265.61-4.12Q265.54-3.48 265.54-2.49L265.54-2.49L265.54-2.49Q265.54-1.49 266.11-0.85L266.11-0.85L266.11-0.85Q267.17 0.28 269.02-0.71L269.02-0.71L269.02-0.71Q270.87-1.70 274.17-4.69L274.17-4.69L274.17-4.69Q277.47-7.67 279.46-10.51L279.46-10.51L279.46-10.51Q279.74-10.86 280.10-10.69L280.10-10.69L280.10-10.69Q280.45-10.51 280.45-10.37L280.45-10.37L280.45-10.37Q280.45-9.30 277.08-5.72L277.08-5.72L277.08-5.72Q273.71-2.13 271.93-0.85L271.93-0.85L271.93-0.85Q268.59 1.63 265.75 1.63L265.75 1.63L265.75 1.63Q263.06 1.63 262.13-1.07L262.13-1.07L262.13-1.07Q261.92-1.92 261.92-2.98L261.92-2.98L261.92-2.98Q261.92-6.18 263.27-9.73L263.27-9.73L263.27-9.73Q262.98-9.59 260.64-6.89L260.64-6.89L260.64-6.89Q258.30-4.19 255.21-1.70L255.21-1.70L255.21-1.70Q252.12 0.78 249.64 0.78ZM276.62 27.05L276.62 27.05L276.62 27.05Q276.05 27.05 275.20 26.84L275.20 26.84L275.20 26.84Q271.58 25.92 271.58 23.04L271.58 23.04L271.58 23.04Q271.58 20.16 275.30 15.83L275.30 15.83L275.30 15.83Q279.03 11.50 291.03 3.55L291.03 3.55L291.03 3.55Q297.70-10.08 299.48-15.55L299.48-15.55L299.48-15.55Q298.63-14.56 296.14-11.25L296.14-11.25L296.14-11.25Q293.66-7.95 291.74-5.64L291.74-5.64L291.74-5.64Q289.82-3.34 287.12-1.28L287.12-1.28L287.12-1.28Q284.43 0.78 282.15 0.78L282.15 0.78L282.15 0.78Q279.88 0.78 278.64-0.25L278.64-0.25L278.64-0.25Q277.40-1.28 277.26-2.41L277.26-2.41L277.26-2.41Q277.11-3.55 277.11-4.33L277.11-4.33L277.11-4.33Q277.11-6.96 278.53-9.59L278.53-9.59L278.53-9.59Q280.66-13.92 284.28-17.04L284.28-17.04L284.28-17.04Q285.63-18.32 286.66-18.32L286.66-18.32L286.66-18.32Q287.69-18.32 288.54-17.68L288.54-17.68L288.54-17.68Q289.47-16.69 289.11-15.98L289.11-15.98L289.11-15.98Q286.41-14.41 282.94-9.94L282.94-9.94L282.94-9.94Q281.09-7.53 280.38-3.83L280.38-3.83L280.38-3.83Q280.31-3.34 280.31-2.59L280.31-2.59L280.31-2.59Q280.31-1.85 280.91-1.38L280.91-1.38L280.91-1.38Q281.52-0.92 282.15-0.92L282.15-0.92L282.15-0.92Q284.36-0.92 286.77-3.27L286.77-3.27L286.77-3.27Q289.18-5.61 291.38-8.20L291.38-8.20L291.38-8.20Q293.59-10.79 296.39-14.41L296.39-14.41L296.39-14.41Q299.19-18.03 300.08-19.17L300.08-19.17L300.08-19.17Q300.97-20.31 301.89-20.31L301.89-20.31L301.89-20.31Q303.03-20.31 304.24-19.67L304.24-19.67L304.24-19.67Q305.44-19.03 305.26-18.67L305.26-18.67L305.26-18.67Q305.09-18.32 301.64-10.61L301.64-10.61L301.64-10.61Q298.20-2.91 296.64 0.43L296.64 0.43L296.64 0.43Q298.34-0.50 302.42-3.94L302.42-3.94L302.42-3.94Q306.51-7.38 309.35-10.93L309.35-10.93L309.35-10.93Q310.06-11.79 310.27-11.08L310.27-11.08L310.27-11.08Q310.34-10.93 310.34-10.61L310.34-10.61L310.34-10.61Q310.34-10.30 309.92-9.73L309.92-9.73L309.92-9.73Q307.71-6.82 302.89-2.41L302.89-2.41L302.89-2.41Q298.06 1.99 295.22 3.55L295.22 3.55L295.22 3.55Q289.18 15.98 287.12 19.17L287.12 19.17L287.12 19.17Q281.80 27.05 276.62 27.05ZM289.68 6.25L289.68 6.25L289.68 6.25Q281.16 12.64 277.50 16.33L277.50 16.33L277.50 16.33Q273.85 20.02 273.85 22.68L273.85 22.68L273.85 22.68Q273.85 25.35 275.69 25.35L275.69 25.35L275.69 25.35Q277.11 25.35 278.96 23.89L278.96 23.89L278.96 23.89Q280.81 22.44 282.51 20.02L282.51 20.02L282.51 20.02Q284.21 17.61 285.10 15.87L285.10 15.87L285.10 15.87Q285.99 14.13 287.55 10.76L287.55 10.76L287.55 10.76Q289.11 7.38 289.68 6.25Z" fill="none" stroke="#ff0000" stroke-width="2.1"></path></g></g></g><style>text {
  font-size: 64px;
  font-family: Arial Black;
  dominant-baseline: central;
  text-anchor: middle;
}</style></svg>